# xmcd
# Copyright (C) 1995-1998 Ti Kan
#
# Track frame offsets:
#       150
#       83303
#       161917
#
# Disc length: 3211 seconds
#
# Revision: 0
# Processed by: cddbd v1.5.2PL0 Copyright (c) Steve Scherf et al.
# Submitted via: CD-Transfer v1.0
#
DISCID=150c8903
DTITLE=Fasnacht Olten 2007 - 
DYEAR=1900
DGENRE=
TTITLE0=Fasnacht Olten 2007 1/3
TTITLE1=Fasnacht Olten 2007 2/3
TTITLE2=Fasnacht Olten 2007 3/3
EXTD=
EXTT0=
EXTT1=
EXTT2=
PLAYORDER=
